<?xml version="1.0" standalone="no"?>
<!DOCTYPE svg PUBLIC "-//W3C//DTD SVG 20010904//EN"
 "http://www.w3.org/TR/2001/REC-SVG-20010904/DTD/svg10.dtd">
<svg version="1.0" xmlns="http://www.w3.org/2000/svg"
 width="147.000000pt" height="147.000000pt" viewBox="0 0 147.000000 147.000000"
 preserveAspectRatio="xMidYMid meet">
<metadata>
Created by potrace 1.11, written by Peter Selinger 2001-2013
</metadata>
<g transform="translate(0.000000,147.000000) scale(0.100000,-0.100000)"
fill="#000000" stroke="none">
<path d="M80 774 l0 -587 87 7 c203 15 460 87 621 171 146 78 234 158 290 267
23 45 27 65 27 138 0 73 -4 93 -28 142 -86 174 -310 314 -627 392 -89 21 -308
56 -356 56 -12 0 -14 -81 -14 -586z m258 466 c329 -60 592 -206 665 -368 81
-179 -74 -371 -393 -491 -102 -38 -281 -82 -387 -96 l-53 -7 0 496 0 496 28
-5 c15 -2 78 -14 140 -25z"/>
</g>
</svg>
